<svg width="12" height="18" viewBox="0 0 12 18" fill="none" xmlns="http://www.w3.org/2000/svg">
<path fill-rule="evenodd" clip-rule="evenodd" d="M2.07143 6.86108C1.20355 6.86108 0.5 7.57666 0.5 8.45937V15.6517C0.5 16.5344 1.20355 17.25 2.07143 17.25H9.92857C10.7964 17.25 11.5 16.5344 11.5 15.6517V8.45937C11.5 7.57666 10.7964 6.86108 9.92857 6.86108H2.07143ZM7.83333 10.8333C7.83333 11.5119 7.46472 12.1043 6.91683 12.4213V15.4167H5.0835V12.4215C4.53542 12.1045 4.16667 11.512 4.16667 10.8333C4.16667 9.82081 4.98748 9 6 9C7.01252 9 7.83333 9.82081 7.83333 10.8333Z" fill="#0FC89B"/>
<path fill-rule="evenodd" clip-rule="evenodd" d="M1.4165 5.10417C1.4165 2.6446 3.52516 0.75 5.99984 0.75C8.47452 0.75 10.5832 2.6446 10.5832 5.10417V7.16667H8.74984V5.10417C8.74984 3.76678 7.57525 2.58333 5.99984 2.58333C4.42443 2.58333 3.24984 3.76678 3.24984 5.10417V7.16667H1.4165V5.10417Z" fill="#0FC89B"/>
</svg>
