<svg width="12" height="18" viewBox="0 0 12 18" fill="none" xmlns="http://www.w3.org/2000/svg">
<path fill-rule="evenodd" clip-rule="evenodd" d="M6 0.75C3.52532 0.75 1.41667 2.6446 1.41667 5.10417V7.00611C0.875695 7.25864 0.5 7.81443 0.5 8.45948V15.6518C0.5 16.5345 1.20355 17.2501 2.07143 17.2501H9.92857C10.7964 17.2501 11.5 16.5345 11.5 15.6518V8.45948C11.5 7.57677 10.7964 6.86119 9.92857 6.86119H3.25V5.10417C3.25 3.76678 4.42459 2.58333 6 2.58333C7.21001 2.58333 8.18358 3.28147 8.57009 4.21129C8.76442 4.67877 9.16041 5.10417 9.66667 5.10417C10.1729 5.10417 10.5939 4.68877 10.4843 4.19453C10.0402 2.19268 8.15946 0.75 6 0.75ZM6.91683 12.4214C7.46472 12.1044 7.83333 11.512 7.83333 10.8334C7.83333 9.82091 7.01252 9.0001 6 9.0001C4.98748 9.0001 4.16667 9.82091 4.16667 10.8334C4.16667 11.5121 4.53542 12.1046 5.0835 12.4216V15.4168H6.91683V12.4214Z" fill="#888888"/>
</svg>
