<svg xmlns="http://www.w3.org/2000/svg" width="24" height="24" viewBox="0 0 24 24" fill="none">
  <path d="M12 5L12 16" stroke="black" stroke-width="2" stroke-linecap="round"/>
  <path fill-rule="evenodd" clip-rule="evenodd" d="M11.4166 2.58333L11.4167 2.58331C11.7388 2.26114 12.2612 2.26114 12.5833 2.58331C12.5851 2.58504 12.5868 2.58677 12.5885 2.58851L18.4166 8.41667C18.7388 8.73883 18.7388 9.26117 18.4166 9.58333C18.0945 9.9055 17.5721 9.9055 17.25 9.58333L12 4.33333L6.75 9.58331C6.42783 9.90548 5.9055 9.90548 5.58333 9.58331C5.26117 9.26114 5.26117 8.73881 5.58333 8.41664L11.4166 2.58333Z" fill="black"/>
  <path fill-rule="evenodd" clip-rule="evenodd" d="M5 12C5.55228 12 6 12.4029 6 12.9V17.4C6 18.3941 6.89543 19.2 8 19.2H16C17.1046 19.2 18 18.3941 18 17.4V12.9C18 12.4029 18.4477 12 19 12C19.5523 12 20 12.4029 20 12.9V17.4C20 19.3882 18.2091 21 16 21H8C5.79086 21 4 19.3882 4 17.4V12.9C4 12.4029 4.44772 12 5 12Z" fill="black"/>
</svg>