<svg xmlns="http://www.w3.org/2000/svg" width="24" height="24" viewBox="0 0 24 24" fill="none">
  <path fill-rule="evenodd" clip-rule="evenodd" d="M6.34319 16.2427C5.95266 16.6332 5.95266 17.2664 6.34319 17.6569C6.73371 18.0474 7.36688 18.0474 7.7574 17.6569L12 13.4143L16.2427 17.657C16.6332 18.0475 17.2664 18.0475 17.6569 17.657C18.0474 17.2665 18.0474 16.6333 17.6569 16.2428L13.4142 12.0001L17.6569 7.7574C18.0474 7.36688 18.0474 6.73371 17.6569 6.34319C17.2664 5.95266 16.6332 5.95266 16.2427 6.34319L12 10.5859L7.7574 6.34327C7.36688 5.95274 6.73371 5.95274 6.34319 6.34327C5.95266 6.73379 5.95266 7.36696 6.34319 7.75748L10.5858 12.0001L6.34319 16.2427Z" fill="black"/>
</svg>