<svg xmlns="http://www.w3.org/2000/svg" width="24" height="24" viewBox="0 0 24 24" fill="none">
  <rect width="24" height="24" fill="white"/>
  <path d="M6 10.8462C6 9.82655 6.76751 9 7.71429 9H16.2857C17.2325 9 18 9.82655 18 10.8462V19.1538C18 20.1734 17.2325 21 16.2857 21H7.71429C6.76751 21 6 20.1734 6 19.1538V10.8462Z" fill="black"/>
  <path fill-rule="evenodd" clip-rule="evenodd" d="M7 7.75C7 5.06683 9.30035 3 12 3C14.3558 3 16.4075 4.57383 16.892 6.75767C17.0116 7.29684 16.5523 7.75 16 7.75V7.75C15.4477 7.75 15.0157 7.28593 14.8037 6.77595C14.3821 5.76161 13.32 5 12 5C10.2814 5 9 6.29103 9 7.75V10.5C9 11.0523 8.55228 11.5 8 11.5V11.5C7.44772 11.5 7 11.0523 7 10.5V7.75Z" fill="black"/>
</svg>